<svg width="13" height="13" viewBox="0 0 13 13" fill="none" xmlns="http://www.w3.org/2000/svg">
<path fill-rule="evenodd" clip-rule="evenodd" d="M6.4 12.1135C9.93462 12.1135 12.8 9.42723 12.8 6.11353C12.8 4.56121 12.1712 3.14657 11.1394 2.08128L11.1535 2.06711C11.3488 1.87184 11.3488 1.55526 11.1535 1.36C10.9583 1.16474 10.6417 1.16474 10.4464 1.36L10.3868 1.41961C9.29317 0.602124 7.90745 0.113525 6.4 0.113525C2.86538 0.113525 0 2.79982 0 6.11353C0 7.66585 0.628806 9.08048 1.66065 10.1458L1.64643 10.16C1.45116 10.3553 1.45116 10.6718 1.64643 10.8671C1.84169 11.0624 2.15827 11.0624 2.35353 10.8671L2.4132 10.8074C3.50683 11.6249 4.89255 12.1135 6.4 12.1135ZM2.4132 10.8074L11.1394 2.08128C10.9079 1.84236 10.6562 1.62101 10.3868 1.41961L1.66065 10.1458C1.89207 10.3847 2.14377 10.6061 2.4132 10.8074Z" fill="#0D3A91"/>
</svg>
